# File created by Blade
# Date/Time:  Fri Jan 16 14:33:51 2015
#---------------------------------------------------------
:version 1.10
:name HOM
:units
  mass 1.0
  length 1.000000
  angle deg
:documentation
     Acclaim Skeleton File
:root
   axis xyz
   order TX TY TZ RX RY RZ
   position 0.000000 0.000000 0.000000
   orientation 0 0 0
:bonedata
   begin
      id 1
      name Spine_dum
      direction 0.000000 1.000000 0.000000
      length 7.067664
      axis 0.0 0.0 0.0 xyz
   end
   begin
      id 2
      name LeftUpLeg_dum
      direction 1.000000 0.000000 0.000000
      length 4.013002
      axis 0.0 0.0 0.0 xyz
   end
   begin
      id 3
      name RightUpLeg_dum
      direction -1.000000 0.000000 0.000000
      length 4.013002
      axis 0.0 0.0 0.0 xyz
   end
   begin
      id 4
      name Spine
      direction 0.000000 1.000000 0.000000
      length 0.000000
      axis 0.0 0.0 0.0 xyz
      dof rx ry rz
   end
   begin
      id 5
      name Spine_dum1
      direction 0.000000 1.000000 0.000000
      length 15.039886
      axis 0.0 0.0 0.0 xyz
   end
   begin
      id 6
      name Spine_dum2
      direction 0.000000 1.000000 0.000000
      length 10.530368
      axis 0.0 0.0 0.0 xyz
   end
   begin
      id 7
      name Spine_dum3
      direction 0.000000 1.000000 0.000000
      length 10.530368
      axis 0.0 0.0 0.0 xyz
   end
   begin
      id 8
      name Head
      direction 0.000000 1.000000 0.000000
      length 4.527550
      axis 0.0 0.0 0.0 xyz
      dof rx ry rz
   end
   begin
      id 9
      name LeftShoulder
      direction 1.000000 0.000000 0.000000
      length 7.028855
      axis 0.0 0.0 -90.0 xyz
      dof rx ry rz
   end
   begin
      id 10
      name LeftArm
      direction 1.000000 0.000000 0.000000
      length 10.797705
      axis 0.0 0.0 -90.0 xyz
      dof rx ry rz
   end
   begin
      id 11
      name LeftForeArm
      direction 1.000000 0.000000 0.000000
      length 7.907442
      axis 0.0 0.0 -90.0 xyz
      dof ry rz rx
   end
   begin
      id 12
      name LeftHand
      direction 0.000000 0.000000 0.000000
      length 0.000000
      axis 0.0 0.0 -90.0 xyz
      dof rx ry rz
   end
   begin
      id 13
      name LeftHand_dum1
      direction 0.000000 0.000000 0.000000
      length 0.000000
      axis 0.0 0.0 -90.0 xyz
   end
   begin
      id 14
      name LeftHand_dum2
      direction 1.000000 0.000000 0.000000
      length 3.937000
      axis 0.0 0.0 -90.0 xyz
   end
   begin
      id 15
      name LeftHandThumb1
      direction 0.000000 0.000000 1.000000
      length 3.937000
      axis 0.0 0.0 -90.0 xyz
      dof rx rz ry
   end
   begin
      id 16
      name RightShoulder
      direction -1.000000 0.000000 0.000000
      length 7.028855
      axis 0.0 0.0 90.0 xyz
      dof rx ry rz
   end
   begin
      id 17
      name RightArm
      direction -1.000000 0.000000 0.000000
      length 10.797705
      axis 0.0 0.0 90.0 xyz
      dof rx ry rz
   end
   begin
      id 18
      name RightForeArm
      direction -1.000000 0.000000 0.000000
      length 7.907442
      axis 0.0 0.0 90.0 xyz
      dof ry rz rx
   end
   begin
      id 19
      name RightHand
      direction 0.000000 0.000000 0.000000
      length 0.000000
      axis 0.0 0.0 90.0 xyz
      dof rx ry rz
   end
   begin
      id 20
      name RightHand_dum1
      direction 0.000000 0.000000 0.000000
      length 0.000000
      axis 0.0 0.0 90.0 xyz
   end
   begin
      id 21
      name RightHand_dum2
      direction -1.000000 0.000000 0.000000
      length 3.937000
      axis 0.0 0.0 90.0 xyz
   end
   begin
      id 22
      name RightHandThumb1
      direction 0.000000 0.000000 1.000000
      length 3.937000
      axis 0.0 0.0 90.0 xyz
      dof rx rz ry
   end
   begin
      id 23
      name LeftUpLeg
      direction 0.000000 -1.000000 0.000000
      length 16.899758
      axis 0.0 0.0 0.0 xyz
      dof rx ry rz
   end
   begin
      id 24
      name LeftLeg
      direction 0.000000 -1.000000 0.000000
      length 17.389183
      axis 0.0 0.0 0.0 xyz
      dof rx ry rz
   end
   begin
      id 25
      name LeftFoot
      direction 0.000000 -0.258819 0.965926
      length 4.924528
      axis 15.0 0.0 0.0 xyz
      dof rx ry rz
   end
   begin
      id 26
      name LeftToeBase
      direction 0.000000 0.000000 1.000000
      length 2.952750
      axis 0.0 0.0 0.0 xyz
      dof rx ry rz
   end
   begin
      id 27
      name RightUpLeg
      direction 0.000000 -1.000000 0.000000
      length 16.899758
      axis 0.0 0.0 0.0 xyz
      dof rx ry rz
   end
   begin
      id 28
      name RightLeg
      direction 0.000000 -1.000000 0.000000
      length 17.389183
      axis 0.0 0.0 0.0 xyz
      dof rx ry rz
   end
   begin
      id 29
      name RightFoot
      direction 0.000000 -0.258819 0.965926
      length 4.924528
      axis 15.0 0.0 0.0 xyz
      dof rx ry rz
   end
   begin
      id 30
      name RightToeBase
      direction 0.000000 0.000000 1.000000
      length 2.952750
      axis 0.0 0.0 0.0 xyz
      dof rx ry rz
   end
:hierarchy
   begin
      root Spine_dum LeftUpLeg_dum RightUpLeg_dum
      Spine_dum Spine
      LeftUpLeg_dum LeftUpLeg
      RightUpLeg_dum RightUpLeg
      Spine Spine_dum1 Spine_dum2 Spine_dum3
      Spine_dum1 Head
      Spine_dum2 LeftShoulder
      Spine_dum3 RightShoulder
      LeftShoulder LeftArm
      LeftArm LeftForeArm
      LeftForeArm LeftHand
      LeftHand LeftHand_dum1 LeftHand_dum2
      LeftHand_dum1 LeftHandThumb1
      RightShoulder RightArm
      RightArm RightForeArm
      RightForeArm RightHand
      RightHand RightHand_dum1 RightHand_dum2
      RightHand_dum1 RightHandThumb1
      LeftUpLeg LeftLeg
      LeftLeg LeftFoot
      LeftFoot LeftToeBase
      RightUpLeg RightLeg
      RightLeg RightFoot
      RightFoot RightToeBase
   end

# File created by Blade
# Date/Time:  Fri Jan 16 14:33:41 2015
# Frame Rate: 120.000 fps
#------------------------------------------------------
:FULLY-SPECIFIED
:DEGREES
1
root 18.977147 35.619193 -25.233292 -171.218785 -0.612887 -178.671964
Spine -21.242405 -0.221365 -0.056721
Head 9.375430 -1.900694 3.064040
LeftShoulder -11.997231 -25.514465 17.324383
LeftArm 7.565151 3.125614 -9.041599
LeftForeArm 8.811805 -0.000000 0.254740
LeftHand -7.886179 -0.000000 -9.501458
LeftHandThumb1 -26.253704 0.000000 33.147579
RightShoulder -11.929223 -8.617976 -6.523530
RightArm 12.079023 39.132867 15.538442
RightForeArm -34.385462 -0.000000 6.259294
RightHand -5.680981 -0.000000 10.186379
RightHandThumb1 -24.326973 -0.000000 -32.862282
LeftUpLeg 1.563286 9.384013 0.664703
LeftLeg -6.073692 -0.000000 0.000000
LeftFoot -21.860013 26.800791 -16.218366
LeftToeBase 24.010970 -0.000000 -0.000000
RightUpLeg 0.065890 -8.834712 2.877564
RightLeg -3.721359 -0.000000 0.000000
RightFoot -21.729166 -25.181694 17.022487
RightToeBase 22.167336 -0.000000 -0.000000
2
root 18.977841 35.619108 -25.229181 -171.215401 -0.614634 -178.672299
Spine -21.233249 -0.225582 -0.053000
Head 9.339914 -1.901730 3.043361
LeftShoulder -11.987120 -25.504797 17.332363
LeftArm 7.566869 3.137382 -9.048243
LeftForeArm 8.824211 -0.000000 0.250032
LeftHand -7.882893 0.000000 -9.454095
LeftHandThumb1 -26.253704 0.000000 33.147579
RightShoulder -11.954335 -8.654334 -6.498514
RightArm 12.141815 38.820305 15.457628
RightForeArm -34.629930 -0.000000 6.252931
RightHand -5.741192 -0.000000 10.305825
RightHandThumb1 -24.326973 -0.000000 -32.862282
LeftUpLeg 1.559940 9.385073 0.664865
LeftLeg -6.084421 -0.000000 0.000000
LeftFoot -21.845266 26.795516 -16.200228
LeftToeBase 24.029788 -0.000000 -0.000000
RightUpLeg 0.055875 -8.839750 2.880394
RightLeg -3.719941 -0.000000 0.000000
RightFoot -21.726010 -25.202626 16.992350
RightToeBase 22.172770 -0.000000 -0.000000
3
root 18.978241 35.619570 -25.225016 -171.210041 -0.618742 -178.672407
Spine -21.232218 -0.204565 -0.058383
Head 9.332332 -1.892732 3.026337
LeftShoulder -11.946432 -25.471695 17.323063
LeftArm 7.581025 3.116727 -9.056455
LeftForeArm 8.850775 -0.000000 0.241710
LeftHand -7.896063 -0.000000 -9.449112
LeftHandThumb1 -26.253704 0.000000 33.147579
RightShoulder -12.013173 -8.727441 -6.452808
RightArm 12.176909 38.356596 15.295015
RightForeArm -34.823507 -0.000000 6.249639
RightHand -5.777699 -0.000000 10.422403
RightHandThumb1 -24.326973 -0.000000 -32.862282
LeftUpLeg 1.547515 9.400495 0.663475
LeftLeg -6.087030 -0.000000 0.000000
LeftFoot -21.834358 26.777924 -16.200180
LeftToeBase 24.010963 -0.000000 -0.000000
RightUpLeg 0.040882 -8.839167 2.883545
RightLeg -3.713465 -0.000000 0.000000
RightFoot -21.718400 -25.197804 16.995983
RightToeBase 22.181462 -0.000000 -0.000000
4
root 18.978544 35.619449 -25.221377 -171.211906 -0.620906 -178.668351
Spine -21.217602 -0.198644 -0.048085
Head 9.311144 -1.882674 2.996052
LeftShoulder -11.942894 -25.407570 17.323056
LeftArm 7.589831 3.029138 -9.076358
LeftForeArm 8.901668 -0.000000 0.260230
LeftHand -7.854146 -0.000000 -9.431903
LeftHandThumb1 -26.253704 0.000000 33.147579
RightShoulder -12.051735 -8.777908 -6.425028
RightArm 12.203408 37.862410 15.146514
RightForeArm -35.151486 -0.000000 6.303576
RightHand -5.830869 -0.000000 10.486685
RightHandThumb1 -24.326973 -0.000000 -32.862282
LeftUpLeg 1.547073 9.409995 0.668306
LeftLeg -6.095538 -0.000000 0.000000
LeftFoot -21.830098 26.762828 -16.197672
LeftToeBase 24.013511 -0.000000 -0.000000
RightUpLeg 0.039167 -8.834738 2.887502
RightLeg -3.717920 -0.000000 0.000000
RightFoot -21.720380 -25.200942 16.998416
RightToeBase 22.210235 -0.000000 -0.000000
5
root 18.978046 35.620004 -25.216982 -171.208209 -0.631140 -178.661835
Spine -21.206201 -0.209759 -0.018038
Head 9.263877 -1.808938 2.981192
LeftShoulder -11.941269 -25.369583 17.312397
LeftArm 7.586236 3.001902 -9.081167
LeftForeArm 8.899631 -0.000000 0.266323
LeftHand -7.851971 -0.000000 -9.366343
LeftHandThumb1 -26.253704 0.000000 33.147579
RightShoulder -12.085484 -8.850761 -6.409271
RightArm 12.255172 37.381431 15.018686
RightForeArm -35.486746 -0.000000 6.353096
RightHand -5.842160 -0.000000 10.511783
RightHandThumb1 -24.326973 -0.000000 -32.862282
LeftUpLeg 1.538175 9.415248 0.672581
LeftLeg -6.103275 -0.000000 0.000000
LeftFoot -21.813803 26.760861 -16.185151
LeftToeBase 23.981672 -0.000000 -0.000000
RightUpLeg 0.023153 -8.846855 2.896035
RightLeg -3.708412 -0.000000 0.000000
RightFoot -21.722078 -25.206911 17.001250
RightToeBase 22.229564 -0.000000 -0.000000
6
root 18.977659 35.619905 -25.212389 -171.193474 -0.636753 -178.663151
Spine -21.207863 -0.219030 -0.008489
Head 9.219043 -1.763361 2.969349
LeftShoulder -11.923080 -25.369267 17.331183
LeftArm 7.553492 3.045682 -9.090343
LeftForeArm 8.864600 0.000000 0.247248
LeftHand -7.854847 -0.000000 -9.337656
LeftHandThumb1 -26.253704 0.000000 33.147579
RightShoulder -12.116016 -8.906362 -6.385085
RightArm 12.267132 36.811355 14.841242
RightForeArm -35.810003 -0.000000 6.418886
RightHand -5.834999 -0.000000 10.557684
RightHandThumb1 -24.326973 -0.000000 -32.862282
LeftUpLeg 1.517947 9.419404 0.667235
LeftLeg -6.109481 -0.000000 0.000000
LeftFoot -21.792327 26.761986 -16.154076
LeftToeBase 24.033661 -0.000000 -0.000000
RightUpLeg 0.003268 -8.855737 2.901032
RightLeg -3.714530 -0.000000 0.000000
RightFoot -21.710324 -25.216011 16.986154
RightToeBase 22.209557 -0.000000 -0.000000
7
root 18.978188 35.619783 -25.207327 -171.179860 -0.638164 -178.660094
Spine -21.209129 -0.238604 0.011311
Head 9.178694 -1.695038 2.951879
LeftShoulder -11.919827 -25.345781 17.341910
LeftArm 7.526334 3.080214 -9.083708
LeftForeArm 8.827320 0.000000 0.234529
LeftHand -7.891875 -0.000000 -9.293757
LeftHandThumb1 -26.253704 0.000000 33.147579
RightShoulder -12.107391 -8.961227 -6.367805
RightArm 12.221083 36.224331 14.635308
RightForeArm -35.971551 -0.000000 6.498914
RightHand -5.804471 0.000000 10.510459
RightHandThumb1 -24.326973 -0.000000 -32.862282
LeftUpLeg 1.496656 9.433496 0.668148
LeftLeg -6.112366 -0.000000 0.000000
LeftFoot -21.785840 26.750801 -16.135136
LeftToeBase 24.043620 -0.000000 -0.000000
RightUpLeg -0.020351 -8.841403 2.907718
RightLeg -3.710100 -0.000000 0.000000
RightFoot -21.716600 -25.231828 16.973789
RightToeBase 22.229179 -0.000000 -0.000000
8
root 18.978165 35.619831 -25.203118 -171.156651 -0.639237 -178.661409
Spine -21.225129 -0.246248 0.013879
Head 9.122043 -1.681375 2.943245
LeftShoulder -11.906345 -25.303094 17.364906
LeftArm 7.507726 3.106039 -9.094553
LeftForeArm 8.760466 -0.000000 0.208776
LeftHand -7.875444 -0.000000 -9.294575
LeftHandThumb1 -26.253704 0.000000 33.147579
RightShoulder -12.113626 -9.017343 -6.329414
RightArm 12.180833 35.615995 14.411491
RightForeArm -36.056156 0.000000 6.559893
RightHand -6.130283 0.000000 10.349808
RightHandThumb1 -24.326973 -0.000000 -32.862282
LeftUpLeg 1.467839 9.452234 0.662078
LeftLeg -6.114654 -0.000000 0.000000
LeftFoot -21.766300 26.732569 -16.114583
LeftToeBase 24.060954 -0.000000 -0.000000
RightUpLeg -0.049111 -8.831143 2.908301
RightLeg -3.711650 -0.000000 0.000000
RightFoot -21.715552 -25.226430 16.980431
RightToeBase 22.224100 -0.000000 -0.000000
9
root 18.977713 35.619861 -25.199774 -171.147445 -0.643961 -178.661519
Spine -21.226875 -0.262382 0.031266
Head 9.076181 -1.618554 2.917722
LeftShoulder -11.890136 -25.306144 17.374246
LeftArm 7.474490 3.183981 -9.082995
LeftForeArm 8.738727 -0.000000 0.171752
LeftHand -7.858977 0.000000 -9.292632
LeftHandThumb1 -26.253704 0.000000 33.147579
RightShoulder -12.112965 -9.100781 -6.302804
RightArm 12.161314 35.288031 14.259436
RightForeArm -36.266836 -0.000000 6.618090
RightHand -6.067375 -0.000000 10.154355
RightHandThumb1 -24.326973 -0.000000 -32.862282
LeftUpLeg 1.457729 9.451757 0.659511
LeftLeg -6.126007 -0.000000 0.000000
LeftFoot -21.762213 26.734683 -16.109716
LeftToeBase 24.071797 -0.000000 -0.000000
RightUpLeg -0.063118 -8.827109 2.910963
RightLeg -3.714097 -0.000000 0.000000
RightFoot -21.707369 -25.231642 16.982433
RightToeBase 22.215898 -0.000000 -0.000000
10
root 18.977543 35.619539 -25.196127 -171.132415 -0.655641 -178.660871
Spine -21.227745 -0.288876 0.043149
Head 9.000160 -1.577272 2.921152
LeftShoulder -11.897826 -25.275858 17.399986
LeftArm 7.481408 3.239834 -9.085600
LeftForeArm 8.662798 -0.000000 0.106229
LeftHand -7.875545 -0.000000 -9.297386
LeftHandThumb1 -26.253704 0.000000 33.147579
RightShoulder -12.117379 -9.171359 -6.288684
RightArm 12.174549 35.171203 14.203305
RightForeArm -36.604481 -0.000000 6.692800
RightHand -5.918972 -0.000000 9.929573
RightHandThumb1 -24.326973 -0.000000 -32.862282
LeftUpLeg 1.433148 9.466376 0.657377
LeftLeg -6.124753 -0.000000 0.000000
LeftFoot -21.756235 26.717102 -16.088277
LeftToeBase 24.091435 -0.000000 -0.000000
RightUpLeg -0.080835 -8.840730 2.916694
RightLeg -3.719921 -0.000000 0.000000
RightFoot -21.697896 -25.234883 16.959151
RightToeBase 22.229579 -0.000000 -0.000000
11
root 18.977019 35.619656 -25.192519 -171.123315 -0.666723 -178.658088
Spine -21.216358 -0.314109 0.062276
Head 8.910469 -1.531667 2.911016
LeftShoulder -11.918519 -25.241285 17.431825
LeftArm 7.483434 3.240762 -9.107350
LeftForeArm 8.638709 0.000000 0.052511
LeftHand -7.861639 -0.000000 -9.301718
LeftHandThumb1 -26.253704 0.000000 33.147579
RightShoulder -12.141510 -9.250022 -6.272245
RightArm 12.246825 35.069642 14.186111
RightForeArm -36.743299 -0.000000 6.770934
RightHand -6.187579 -0.000000 9.657960
RightHandThumb1 -24.326973 -0.000000 -32.862282
LeftUpLeg 1.421610 9.449888 0.658935
LeftLeg -6.133833 -0.000000 0.000000
LeftFoot -21.740851 26.728105 -16.074324
LeftToeBase 24.052556 -0.000000 -0.000000
RightUpLeg -0.089692 -8.831989 2.921242
RightLeg -3.728769 -0.000000 0.000000
RightFoot -21.705562 -25.251632 16.976333
RightToeBase 22.221930 -0.000000 -0.000000
12
root 18.976724 35.619222 -25.189149 -171.109063 -0.673257 -178.657092
Spine -21.215511 -0.325229 0.074956
Head 8.816761 -1.508113 2.897735
LeftShoulder -11.912204 -25.229690 17.456525
LeftArm 7.463877 3.246299 -9.114073
LeftForeArm 8.667382 -0.000000 0.005998
LeftHand -7.866875 0.000000 -9.366776
LeftHandThumb1 -26.253704 0.000000 33.147579
RightShoulder -12.129898 -9.253531 -6.273846
RightArm 12.179509 35.006143 14.101460
RightForeArm -36.879447 -0.000000 6.875409
RightHand -6.205439 -0.000000 9.525639
RightHandThumb1 -24.326973 -0.000000 -32.862282
LeftUpLeg 1.402053 9.459302 0.656610
LeftLeg -6.137586 -0.000000 0.000000
LeftFoot -21.726338 26.722087 -16.044361
LeftToeBase 24.026708 -0.000000 -0.000000
RightUpLeg -0.108595 -8.849588 2.927203
RightLeg -3.733410 -0.000000 0.000000
RightFoot -21.694724 -25.262793 16.940418
RightToeBase 22.252798 -0.000000 -0.000000
13
root 18.975786 35.619230 -25.185413 -171.099296 -0.679789 -178.664831
Spine -21.213931 -0.338802 0.085188
Head 8.741681 -1.493010 2.854772
LeftShoulder -11.914479 -25.229383 17.475236
LeftArm 7.459264 3.254973 -9.122995
LeftForeArm 8.730966 -0.000000 -0.045540
LeftHand -7.899418 0.000000 -9.397507
LeftHandThumb1 -26.253704 0.000000 33.147579
RightShoulder -12.087185 -9.220134 -6.284116
RightArm 12.052961 34.969196 13.988036
RightForeArm -37.085951 -0.000000 6.977526
RightHand -6.132183 -0.000000 9.366048
RightHandThumb1 -24.326973 -0.000000 -32.862282
LeftUpLeg 1.382831 9.454170 0.644508
LeftLeg -6.135919 -0.000000 0.000000
LeftFoot -21.737413 26.726003 -16.052412
LeftToeBase 24.100077 -0.000000 -0.000000
RightUpLeg -0.118374 -8.831733 2.919457
RightLeg -3.741085 -0.000000 0.000000
RightFoot -21.692387 -25.279618 16.942996
RightToeBase 22.220580 -0.000000 -0.000000
